999
dxfrw 0.6.3
  0
SECTION
  2
HEADER
  9
$ACADVER
  1
AC1021
  9
$DWGCODEPAGE
  3
ANSI_1252
  9
$INSBASE
 10
0
 20
0
 30
0
  9
$EXTMIN
 10
-77
 20
-35
 30
0
  9
$EXTMAX
 10
280
 20
125
 30
0
  9
$LIMMIN
 10
0
 20
0
  9
$LIMMAX
 10
420
 20
297
  9
$ORTHOMODE
 70
    0
  9
$REGENMODE
 70
    1
  9
$FILLMODE
 70
    1
  9
$QTEXTMODE
 70
    0
  9
$MIRRTEXT
 70
    0
  9
$LTSCALE
 40
1
  9
$ATTMODE
 70
    0
  9
$TEXTSIZE
 40
2.5
  9
$TRACEWID
 40
15.68
  9
$TEXTSTYLE
  7
STANDARD
  9
$CLAYER
  8
RightLayer1 (BottomPlate)
  9
$CELTYPE
  6
BYLAYER
  9
$CECOLOR
 62
  256
  9
$CELTSCALE
 40
1
  9
$DISPSILH
 70
    0
  9
$DIMSCALE
 40
1
  9
$DIMASZ
 40
2.5
  9
$DIMEXO
 40
0.625
  9
$DIMDLI
 40
3.75
  9
$DIMRND
 40
0
  9
$DIMDLE
 40
0
  9
$DIMEXE
 40
1.25
  9
$DIMTP
 40
0
  9
$DIMTM
 40
0
  9
$DIMTXT
 40
2.5
  9
$DIMCEN
 40
2.5
  9
$DIMTSZ
 40
0
  9
$DIMTOL
 70
    0
  9
$DIMLIM
 70
    0
  9
$DIMTIH
 70
    0
  9
$DIMTOH
 70
    0
  9
$DIMSE1
 70
    0
  9
$DIMSE2
 70
    0
  9
$DIMTAD
 70
    1
  9
$DIMZIN
 70
    8
  9
$DIMBLK
  1

  9
$DIMASO
 70
    1
  9
$DIMSHO
 70
    1
  9
$DIMPOST
  1

  9
$DIMAPOST
  1

  9
$DIMALT
 70
    0
  9
$DIMALTD
 70
    3
  9
$DIMALTF
 40
0.03937
  9
$DIMLFAC
 40
1
  9
$DIMTOFL
 70
    1
  9
$DIMTVP
 40
0
  9
$DIMTIX
 70
    0
  9
$DIMSOXD
 70
    0
  9
$DIMSAH
 70
    0
  9
$DIMBLK1
  1

  9
$DIMBLK2
  1

  9
$DIMSTYLE
  2
STANDARD
  9
$DIMCLRD
 70
    0
  9
$DIMCLRE
 70
    0
  9
$DIMCLRT
 70
    0
  9
$DIMTFAC
 40
1
  9
$DIMGAP
 40
0.625
  9
$DIMJUST
 70
    0
  9
$DIMSD1
 70
    0
  9
$DIMSD2
 70
    0
  9
$DIMTOLJ
 70
    0
  9
$DIMTZIN
 70
    8
  9
$DIMALTZ
 70
    0
  9
$DIMALTTZ
 70
    0
  9
$DIMUPT
 70
    0
  9
$DIMDEC
 70
    2
  9
$DIMTDEC
 70
    2
  9
$DIMALTU
 70
    2
  9
$DIMALTTD
 70
    3
  9
$DIMTXSTY
  7
standard
  9
$DIMAUNIT
 70
    0
  9
$DIMADEC
 70
    0
  9
$DIMALTRND
 40
0
  9
$DIMAZIN
 70
    0
  9
$DIMDSEP
 70
   44
  9
$DIMATFIT
 70
    3
  9
$DIMFRAC
 70
    0
  9
$DIMLDRBLK
  1
STANDARD
  9
$DIMLUNIT
 70
    2
  9
$DIMLWD
 70
   -2
  9
$DIMLWE
 70
   -2
  9
$DIMTMOVE
 70
    0
  9
$DIMFXL
 40
1
  9
$DIMFXLON
 70
    0
  9
$DIMJOGANG
 40
0.7854
  9
$DIMTFILL
 70
    0
  9
$DIMTFILLCLR
 70
    0
  9
$DIMARCSYM
 70
    0
  9
$DIMLTYPE
  6

  9
$DIMLTEX1
  6

  9
$DIMLTEX2
  6

  9
$LUNITS
 70
    2
  9
$LUPREC
 70
    4
  9
$SKETCHINC
 40
1
  9
$FILLETRAD
 40
0
  9
$AUNITS
 70
    0
  9
$AUPREC
 70
    2
  9
$MENU
  1
.
  9
$ELEVATION
 40
0
  9
$PELEVATION
 40
0
  9
$THICKNESS
 40
0
  9
$LIMCHECK
 70
    0
  9
$CHAMFERA
 40
0
  9
$CHAMFERB
 40
0
  9
$CHAMFERC
 40
0
  9
$CHAMFERD
 40
0
  9
$SKPOLY
 70
    0
  9
$USRTIMER
 70
    1
  9
$ANGBASE
 50
0
  9
$ANGDIR
 70
    0
  9
$PDMODE
 70
   34
  9
$PDSIZE
 40
0
  9
$PLINEWID
 40
0
  9
$SPLFRAME
 70
    0
  9
$SPLINETYPE
 70
    2
  9
$SPLINESEGS
 70
    8
  9
$HANDSEED
  5
20000
  9
$SURFTAB1
 70
    6
  9
$SURFTAB2
 70
    6
  9
$SURFTYPE
 70
    6
  9
$SURFU
 70
    6
  9
$SURFV
 70
    6
  9
$UCSBASE
  2

  9
$UCSNAME
  2

  9
$UCSORG
 10
0
 20
0
 30
0
  9
$UCSXDIR
 10
1
 20
0
 30
0
  9
$UCSYDIR
 10
0
 20
1
 30
0
  9
$UCSORTHOREF
  2

  9
$UCSORTHOVIEW
 70
    0
  9
$UCSORGTOP
 10
0
 20
0
 30
0
  9
$UCSORGBOTTOM
 10
0
 20
0
 30
0
  9
$UCSORGLEFT
 10
0
 20
0
 30
0
  9
$UCSORGRIGHT
 10
0
 20
0
 30
0
  9
$UCSORGFRONT
 10
0
 20
0
 30
0
  9
$UCSORGBACK
 10
0
 20
0
 30
0
  9
$PUCSBASE
  2

  9
$PUCSNAME
  2

  9
$PUCSORG
 10
0
 20
0
 30
0
  9
$PUCSXDIR
 10
1
 20
0
 30
0
  9
$PUCSYDIR
 10
0
 20
1
 30
0
  9
$PUCSORTHOREF
  2

  9
$PUCSORTHOVIEW
 70
    0
  9
$PUCSORGTOP
 10
0
 20
0
 30
0
  9
$PUCSORGBOTTOM
 10
0
 20
0
 30
0
  9
$PUCSORGLEFT
 10
0
 20
0
 30
0
  9
$PUCSORGRIGHT
 10
0
 20
0
 30
0
  9
$PUCSORGFRONT
 10
0
 20
0
 30
0
  9
$PUCSORGBACK
 10
0
 20
0
 30
0
  9
$USERI1
 70
    0
  9
$USERI2
 70
    0
  9
$USERI3
 70
    0
  9
$USERI4
 70
    0
  9
$USERI5
 70
    0
  9
$USERR1
 40
0
  9
$USERR2
 40
0
  9
$USERR3
 40
0
  9
$USERR4
 40
0
  9
$USERR5
 40
0
  9
$WORLDVIEW
 70
    1
  9
$SHADEDGE
 70
    3
  9
$SHADEDIF
 70
   70
  9
$TILEMODE
 70
    1
  9
$MAXACTVP
 70
   64
  9
$PINSBASE
 10
28.5
 20
55
 30
0
  9
$PLIMCHECK
 70
    0
  9
$PEXTMIN
 10
0
 20
0
 30
0
  9
$PEXTMAX
 10
0
 20
0
 30
0
  9
$GRIDMODE
 70
    1
  9
$SNAPSTYLE
 70
    0
  9
$GRIDUNIT
 10
0
 20
0
  9
$PLIMMIN
 10
0
 20
0
  9
$PLIMMAX
 10
297
 20
210
  9
$UNITMODE
 70
    0
  9
$VISRETAIN
 70
    1
  9
$PLINEGEN
 70
    0
  9
$PSLTSCALE
 70
    1
  9
$TREEDEPTH
 70
 3020
  9
$CMLSTYLE
  2
Standard
  9
$CMLJUST
 70
    0
  9
$CMLSCALE
 40
20
  9
$PROXYGRAPHICS
 70
    1
  9
$MEASUREMENT
 70
    1
  9
$CELWEIGHT
370
   -1
  9
$ENDCAPS
280
    0
  9
$JOINSTYLE
280
    0
  9
$LWDISPLAY
290
    0
  9
$INSUNITS
 70
    4
  9
$HYPERLINKBASE
  1

  9
$STYLESHEET
  1

  9
$XEDIT
290
    1
  9
$CEPSNTYPE
380
    0
  9
$PSTYLEMODE
290
    1
  9
$EXTNAMES
290
    1
  9
$PSVPSCALE
 40
1
  9
$OLESTARTUP
290
    0
  9
$SORTENTS
280
  127
  9
$INDEXCTL
280
    0
  9
$HIDETEXT
280
    1
  9
$XCLIPFRAME
290
    0
  9
$HALOGAP
280
    0
  9
$OBSCOLOR
 70
  257
  9
$OBSLTYPE
280
    0
  9
$INTERSECTIONDISPLAY
280
    0
  9
$INTERSECTIONCOLOR
 70
  257
  9
$DIMASSOC
280
    1
  9
$PROJECTNAME
  1

  9
$CAMERADISPLAY
290
    0
  9
$LENSLENGTH
 40
50
  9
$CAMERAHEIGHT
 40
0
  9
$STEPSPERSEC
 40
2
  9
$STEPSIZE
 40
50
  9
$3DDWFPREC
 40
2
  9
$PSOLWIDTH
 40
5
  9
$PSOLHEIGHT
 40
80
  9
$LOFTANG1
 40
1.570796326794897
  9
$LOFTANG2
 40
1.570796326794897
  9
$LOFTMAG1
 40
0
  9
$LOFTMAG2
 40
0
  9
$LOFTPARAM
 70
    7
  9
$LOFTNORMALS
280
    1
  9
$LATITUDE
 40
1
  9
$LONGITUDE
 40
1
  9
$NORTHDIRECTION
 40
0
  9
$TIMEZONE
 70
-8000
  9
$LIGHTGLYPHDISPLAY
280
    1
  9
$TILEMODELIGHTSYNCH
280
    1
  9
$SOLIDHIST
280
    1
  9
$SHOWHIST
280
    1
  9
$DWFFRAME
280
    2
  9
$DGNFRAME
280
    0
  9
$REALWORLDSCALE
290
    1
  9
$INTERFERECOLOR
 62
    1
  9
$CSHADOW
280
    0
  9
$SHADOWPLANELOCATION
 40
0
  0
ENDSEC
  0
SECTION
  2
CLASSES
  0
ENDSEC
  0
SECTION
  2
TABLES
  0
TABLE
  2
VPORT
  5
8
330
0
100
AcDbSymbolTable
 70
    1
  0
VPORT
  5
31
330
2
100
AcDbSymbolTableRecord
100
AcDbViewportTableRecord
  2
*ACTIVE
 70
    0
 10
0
 20
0
 11
1
 21
1
 12
142.6584491628539
 22
73.90428684068422
 13
0
 23
0
 14
10
 24
10
 15
10
 25
10
 16
0
 26
0
 36
1
 17
0
 27
0
 37
0
 40
210.6400928072463
 41
1.773838630806846
 42
50
 43
0
 44
0
 50
0
 51
0
 71
    0
 72
  100
 73
    1
 74
    3
 75
    0
 76
    1
 77
    0
 78
    0
281
    0
 65
    1
110
0
120
0
130
0
111
1
121
0
131
0
112
0
122
1
132
0
 79
    0
146
0
348
10020
 60
    7
 61
    5
292
1
282
    1
141
0
142
0
 63
  250
421
3358443
  0
ENDTAB
  0
TABLE
  2
LTYPE
  5
5
330
0
100
AcDbSymbolTable
 70
    4
  0
LTYPE
  5
14
330
5
100
AcDbSymbolTableRecord
100
AcDbLinetypeTableRecord
  2
ByBlock
 70
    0
  3

 72
   65
 73
    0
 40
0
  0
LTYPE
  5
15
330
5
100
AcDbSymbolTableRecord
100
AcDbLinetypeTableRecord
  2
ByLayer
 70
    0
  3

 72
   65
 73
    0
 40
0
  0
LTYPE
  5
16
330
5
100
AcDbSymbolTableRecord
100
AcDbLinetypeTableRecord
  2
Continuous
 70
    0
  3
Solid line
 72
   65
 73
    0
 40
0
  0
LTYPE
  5
32
330
5
100
AcDbSymbolTableRecord
100
AcDbLinetypeTableRecord
  2
DOT
 70
    0
  3
Dot . . . . . . . . . . . . . . . . . . . . . .
 72
   65
 73
    2
 40
6.35
 49
0
 74
    0
 49
-6.35
 74
    0
  0
LTYPE
  5
33
330
5
100
AcDbSymbolTableRecord
100
AcDbLinetypeTableRecord
  2
DOTTINY
 70
    0
  3
Dot (.15x) .....................................
 72
   65
 73
    2
 40
0.9525
 49
0
 74
    0
 49
-0.9525
 74
    0
  0
LTYPE
  5
34
330
5
100
AcDbSymbolTableRecord
100
AcDbLinetypeTableRecord
  2
DOT2
 70
    0
  3
Dot (.5x) .....................................
 72
   65
 73
    2
 40
3.175
 49
0
 74
    0
 49
-3.175
 74
    0
  0
LTYPE
  5
35
330
5
100
AcDbSymbolTableRecord
100
AcDbLinetypeTableRecord
  2
DOTX2
 70
    0
  3
Dot (2x) .  .  .  .  .  .  .  .  .  .  .  .  .
 72
   65
 73
    2
 40
12.7
 49
0
 74
    0
 49
-12.7
 74
    0
  0
LTYPE
  5
36
330
5
100
AcDbSymbolTableRecord
100
AcDbLinetypeTableRecord
  2
DASHED
 70
    0
  3
Dashed _ _ _ _ _ _ _ _ _ _ _ _ _ _ _ _ _
 72
   65
 73
    2
 40
19.05
 49
12.7
 74
    0
 49
-6.35
 74
    0
  0
LTYPE
  5
37
330
5
100
AcDbSymbolTableRecord
100
AcDbLinetypeTableRecord
  2
DASHEDTINY
 70
    0
  3
Dashed (.15x) _ _ _ _ _ _ _ _ _ _ _ _ _ _ _ _ _
 72
   65
 73
    2
 40
2.8575
 49
1.905
 74
    0
 49
-0.9525
 74
    0
  0
LTYPE
  5
38
330
5
100
AcDbSymbolTableRecord
100
AcDbLinetypeTableRecord
  2
DASHED2
 70
    0
  3
Dashed (.5x) _ _ _ _ _ _ _ _ _ _ _ _ _ _ _ _ _
 72
   65
 73
    2
 40
9.524999999999999
 49
6.35
 74
    0
 49
-3.175
 74
    0
  0
LTYPE
  5
39
330
5
100
AcDbSymbolTableRecord
100
AcDbLinetypeTableRecord
  2
DASHEDX2
 70
    0
  3
Dashed (2x) ____  ____  ____  ____  ____  ___
 72
   65
 73
    2
 40
38.09999999999999
 49
25.4
 74
    0
 49
-12.7
 74
    0
  0
LTYPE
  5
3A
330
5
100
AcDbSymbolTableRecord
100
AcDbLinetypeTableRecord
  2
DASHDOT
 70
    0
  3
Dash dot __ . __ . __ . __ . __ . __ . __ . __
 72
   65
 73
    4
 40
25.4
 49
12.7
 74
    0
 49
-6.35
 74
    0
 49
0
 74
    0
 49
-6.35
 74
    0
  0
LTYPE
  5
3B
330
5
100
AcDbSymbolTableRecord
100
AcDbLinetypeTableRecord
  2
DASHDOTTINY
 70
    0
  3
Dash dot (.15x) _._._._._._._._._._._._._._._.
 72
   65
 73
    4
 40
3.81
 49
1.905
 74
    0
 49
-0.9525
 74
    0
 49
0
 74
    0
 49
-0.9525
 74
    0
  0
LTYPE
  5
3C
330
5
100
AcDbSymbolTableRecord
100
AcDbLinetypeTableRecord
  2
DASHDOT2
 70
    0
  3
Dash dot (.5x) _._._._._._._._._._._._._._._.
 72
   65
 73
    4
 40
12.7
 49
6.35
 74
    0
 49
-3.175
 74
    0
 49
0
 74
    0
 49
-3.175
 74
    0
  0
LTYPE
  5
3D
330
5
100
AcDbSymbolTableRecord
100
AcDbLinetypeTableRecord
  2
DASHDOTX2
 70
    0
  3
Dash dot (2x) ____  .  ____  .  ____  .  ___
 72
   65
 73
    4
 40
50.8
 49
25.4
 74
    0
 49
-12.7
 74
    0
 49
0
 74
    0
 49
-12.7
 74
    0
  0
LTYPE
  5
3E
330
5
100
AcDbSymbolTableRecord
100
AcDbLinetypeTableRecord
  2
DIVIDE
 70
    0
  3
Divide ____ . . ____ . . ____ . . ____ . . ____
 72
   65
 73
    6
 40
31.75
 49
12.7
 74
    0
 49
-6.35
 74
    0
 49
0
 74
    0
 49
-6.35
 74
    0
 49
0
 74
    0
 49
-6.35
 74
    0
  0
LTYPE
  5
3F
330
5
100
AcDbSymbolTableRecord
100
AcDbLinetypeTableRecord
  2
DIVIDETINY
 70
    0
  3
Divide (.15x) __..__..__..__..__..__..__..__.._
 72
   65
 73
    6
 40
4.7625
 49
1.905
 74
    0
 49
-0.9525
 74
    0
 49
0
 74
    0
 49
-0.9525
 74
    0
 49
0
 74
    0
 49
-0.9525
 74
    0
  0
LTYPE
  5
40
330
5
100
AcDbSymbolTableRecord
100
AcDbLinetypeTableRecord
  2
DIVIDE2
 70
    0
  3
Divide (.5x) __..__..__..__..__..__..__..__.._
 72
   65
 73
    6
 40
15.875
 49
6.35
 74
    0
 49
-3.175
 74
    0
 49
0
 74
    0
 49
-3.175
 74
    0
 49
0
 74
    0
 49
-3.175
 74
    0
  0
LTYPE
  5
41
330
5
100
AcDbSymbolTableRecord
100
AcDbLinetypeTableRecord
  2
DIVIDEX2
 70
    0
  3
Divide (2x) ________  .  .  ________  .  .  _
 72
   65
 73
    6
 40
63.5
 49
25.4
 74
    0
 49
-12.7
 74
    0
 49
0
 74
    0
 49
-12.7
 74
    0
 49
0
 74
    0
 49
-12.7
 74
    0
  0
LTYPE
  5
42
330
5
100
AcDbSymbolTableRecord
100
AcDbLinetypeTableRecord
  2
BORDER
 70
    0
  3
Border __ __ . __ __ . __ __ . __ __ . __ __ .
 72
   65
 73
    6
 40
44.45
 49
12.7
 74
    0
 49
-6.35
 74
    0
 49
12.7
 74
    0
 49
-6.35
 74
    0
 49
0
 74
    0
 49
-6.35
 74
    0
  0
LTYPE
  5
43
330
5
100
AcDbSymbolTableRecord
100
AcDbLinetypeTableRecord
  2
BORDERTINY
 70
    0
  3
Border (.15x) __.__.__.__.__.__.__.__.__.__.__.
 72
   65
 73
    6
 40
6.6675
 49
1.905
 74
    0
 49
-0.9525
 74
    0
 49
1.905
 74
    0
 49
-0.9525
 74
    0
 49
0
 74
    0
 49
-0.9525
 74
    0
  0
LTYPE
  5
44
330
5
100
AcDbSymbolTableRecord
100
AcDbLinetypeTableRecord
  2
BORDER2
 70
    0
  3
Border (.5x) __.__.__.__.__.__.__.__.__.__.__.
 72
   65
 73
    6
 40
22.225
 49
6.35
 74
    0
 49
-3.175
 74
    0
 49
6.35
 74
    0
 49
-3.175
 74
    0
 49
0
 74
    0
 49
-3.175
 74
    0
  0
LTYPE
  5
45
330
5
100
AcDbSymbolTableRecord
100
AcDbLinetypeTableRecord
  2
BORDERX2
 70
    0
  3
Border (2x) ____  ____  .  ____  ____  .  ___
 72
   65
 73
    6
 40
88.89999999999999
 49
25.4
 74
    0
 49
-12.7
 74
    0
 49
25.4
 74
    0
 49
-12.7
 74
    0
 49
0
 74
    0
 49
-12.7
 74
    0
  0
LTYPE
  5
46
330
5
100
AcDbSymbolTableRecord
100
AcDbLinetypeTableRecord
  2
CENTER
 70
    0
  3
Center ____ _ ____ _ ____ _ ____ _ ____ _ ____
 72
   65
 73
    4
 40
50.8
 49
31.75
 74
    0
 49
-6.35
 74
    0
 49
6.35
 74
    0
 49
-6.35
 74
    0
  0
LTYPE
  5
47
330
5
100
AcDbSymbolTableRecord
100
AcDbLinetypeTableRecord
  2
CENTERTINY
 70
    0
  3
Center (.15x) ___ _ ___ _ ___ _ ___ _ ___ _ ___
 72
   65
 73
    4
 40
7.619999999999999
 49
4.7625
 74
    0
 49
-0.9525
 74
    0
 49
0.9525
 74
    0
 49
-0.9525
 74
    0
  0
LTYPE
  5
48
330
5
100
AcDbSymbolTableRecord
100
AcDbLinetypeTableRecord
  2
CENTER2
 70
    0
  3
Center (.5x) ___ _ ___ _ ___ _ ___ _ ___ _ ___
 72
   65
 73
    4
 40
28.575
 49
19.05
 74
    0
 49
-3.175
 74
    0
 49
3.175
 74
    0
 49
-3.175
 74
    0
  0
LTYPE
  5
49
330
5
100
AcDbSymbolTableRecord
100
AcDbLinetypeTableRecord
  2
CENTERX2
 70
    0
  3
Center (2x) ________  __  ________  __  _____
 72
   65
 73
    4
 40
101.6
 49
63.5
 74
    0
 49
-12.7
 74
    0
 49
12.7
 74
    0
 49
-12.7
 74
    0
  0
ENDTAB
  0
TABLE
  2
LAYER
  5
2
330
0
100
AcDbSymbolTable
 70
    1
  0
LAYER
  5
10
330
2
100
AcDbSymbolTableRecord
100
AcDbLayerTableRecord
  2
0
 70
    0
 62
    7
  6
CONTINUOUS
370
    0
390
F
  0
LAYER
  5
4A
330
2
100
AcDbSymbolTableRecord
100
AcDbLayerTableRecord
  2
Electronics
 70
    1
 62
    7
  6
CONTINUOUS
370
    0
390
F
  0
LAYER
  5
4B
330
2
100
AcDbSymbolTableRecord
100
AcDbLayerTableRecord
  2
LeftLayer1 (BottomPlace)
 70
    1
 62
    7
  6
CONTINUOUS
370
    0
390
F
  0
LAYER
  5
4C
330
2
100
AcDbSymbolTableRecord
100
AcDbLayerTableRecord
  2
LeftLayer2 (EnclosingFrame)
 70
    1
 62
    7
  6
CONTINUOUS
370
    0
390
F
  0
LAYER
  5
4D
330
2
100
AcDbSymbolTableRecord
100
AcDbLayerTableRecord
  2
LeftLayer3 (MetalPlate)
 70
    1
 62
    7
  6
CONTINUOUS
370
    0
390
F
  0
LAYER
  5
4E
330
2
100
AcDbSymbolTableRecord
100
AcDbLayerTableRecord
  2
LeftLayer4 (TopCover)
 70
    1
 62
    7
  6
CONTINUOUS
370
    0
390
F
  0
LAYER
  5
4F
330
2
100
AcDbSymbolTableRecord
100
AcDbLayerTableRecord
  2
RightLayer1 (BottomPlate)
 70
    1
 62
    7
  6
CONTINUOUS
370
    0
390
F
  0
LAYER
  5
50
330
2
100
AcDbSymbolTableRecord
100
AcDbLayerTableRecord
  2
RightLayer2 (EnclosingFrame)
 70
    0
 62
    7
  6
CONTINUOUS
370
    0
390
F
  0
LAYER
  5
51
330
2
100
AcDbSymbolTableRecord
100
AcDbLayerTableRecord
  2
RightLayer3 (MetalPlate)
 70
    1
 62
    7
  6
CONTINUOUS
370
    0
390
F
  0
LAYER
  5
52
330
2
100
AcDbSymbolTableRecord
100
AcDbLayerTableRecord
  2
RightLayer4 (TopCover)
 70
    0
 62
    7
  6
CONTINUOUS
370
    0
390
F
  0
ENDTAB
  0
TABLE
  2
STYLE
  5
3
330
0
100
AcDbSymbolTable
 70
    3
  0
STYLE
  5
53
330
2
100
AcDbSymbolTableRecord
100
AcDbTextStyleTableRecord
  2
Standard
 70
    0
 40
0
 41
1
 50
0
 71
    0
 42
1
  3
txt
  4

  0
ENDTAB
  0
TABLE
  2
VIEW
  5
6
330
0
100
AcDbSymbolTable
 70
    0
  0
ENDTAB
  0
TABLE
  2
UCS
  5
7
330
0
100
AcDbSymbolTable
 70
    0
  0
ENDTAB
  0
TABLE
  2
APPID
  5
9
330
0
100
AcDbSymbolTable
 70
    1
  0
APPID
  5
12
330
9
100
AcDbSymbolTableRecord
100
AcDbRegAppTableRecord
  2
ACAD
 70
    0
  0
APPID
  5
54
330
9
100
AcDbSymbolTableRecord
100
AcDbRegAppTableRecord
  2
LibreCad
 70
    0
  0
ENDTAB
  0
TABLE
  2
DIMSTYLE
  5
A
330
0
100
AcDbSymbolTable
 70
    1
100
AcDbDimStyleTable
 71
    1
  0
DIMSTYLE
105
55
330
A
100
AcDbSymbolTableRecord
100
AcDbDimStyleTableRecord
  2
Standard
 70
    0
 40
1
 41
2.5
 42
0.625
 43
0.38
 44
1.25
 45
0
 46
0
 47
0
 48
0
 49
1
140
2.5
141
0.09
142
0
143
25.4
144
1
145
0
146
1
147
0.625
148
0
 71
    0
 72
    0
 73
    0
 74
    1
 75
    0
 76
    0
 77
    0
 78
    8
 79
    0
170
    0
171
    2
172
    0
173
    0
174
    0
175
    0
176
    0
177
    0
178
    0
179
    0
271
    2
272
    4
273
    2
274
    2
275
    0
276
    0
277
    2
278
   44
279
    0
280
    0
281
    0
282
    0
283
    1
284
    0
285
    0
286
    0
288
    0
289
    3
340
standard
341

371
   -2
372
   -2
  0
ENDTAB
  0
TABLE
  2
BLOCK_RECORD
  5
1
330
0
100
AcDbSymbolTable
 70
    2
  0
BLOCK_RECORD
  5
1F
330
1
100
AcDbSymbolTableRecord
100
AcDbBlockTableRecord
  2
*Model_Space
 70
    0
280
    1
281
    0
  0
BLOCK_RECORD
  5
1E
330
1
100
AcDbSymbolTableRecord
100
AcDbBlockTableRecord
  2
*Paper_Space
 70
    0
280
    1
281
    0
  0
ENDTAB
  0
ENDSEC
  0
SECTION
  2
BLOCKS
  0
BLOCK
  5
20
330
1F
100
AcDbEntity
  8
0
100
AcDbBlockBegin
  2
*Model_Space
 70
    0
 10
0
 20
0
 30
0
  3
*Model_Space
  1

  0
ENDBLK
  5
21
330
1F
100
AcDbEntity
  8
0
100
AcDbBlockEnd
  0
BLOCK
  5
1C
330
1B
100
AcDbEntity
  8
0
100
AcDbBlockBegin
  2
*Paper_Space
 70
    0
 10
0
 20
0
 30
0
  3
*Paper_Space
  1

  0
ENDBLK
  5
1D
330
1F
100
AcDbEntity
  8
0
100
AcDbBlockEnd
  0
ENDSEC
  0
SECTION
  2
ENTITIES
  0
LWPOLYLINE
  5
56
100
AcDbEntity
  8
RightLayer3 (MetalPlate)
  6
ByLayer
 62
  256
370
   -1
100
AcDbPolyline
 90
    4
 70
    1
 43
0
 10
180
 20
-20
 10
180
 20
-6.000000000000007
 10
194
 20
-6.000000000000007
 10
194
 20
-20
  0
LWPOLYLINE
  5
57
100
AcDbEntity
  8
RightLayer3 (MetalPlate)
  6
ByLayer
 62
  256
370
   -1
100
AcDbPolyline
 90
    4
 70
    1
 43
0
 10
199
 20
-20
 10
199
 20
-6.000000000000007
 10
213
 20
-6.000000000000007
 10
213
 20
-20
  0
LWPOLYLINE
  5
58
100
AcDbEntity
  8
RightLayer3 (MetalPlate)
  6
ByLayer
 62
  256
370
   -1
100
AcDbPolyline
 90
    4
 70
    1
 43
0
 10
180
 20
-1.000000000000007
 10
180
 20
12.99999999999999
 10
194
 20
12.99999999999999
 10
194
 20
-1.000000000000007
  0
LWPOLYLINE
  5
59
100
AcDbEntity
  8
RightLayer3 (MetalPlate)
  6
ByLayer
 62
  256
370
   -1
100
AcDbPolyline
 90
    4
 70
    1
 43
0
 10
199
 20
-1.000000000000007
 10
199
 20
12.99999999999999
 10
213
 20
12.99999999999999
 10
213
 20
-1.000000000000007
  0
LWPOLYLINE
  5
5A
100
AcDbEntity
  8
RightLayer3 (MetalPlate)
  6
ByLayer
 62
  256
370
   -1
100
AcDbPolyline
 90
    4
 70
    1
 43
0
 10
180
 20
75
 10
180
 20
89
 10
194
 20
89
 10
194
 20
75
  0
LWPOLYLINE
  5
5B
100
AcDbEntity
  8
RightLayer3 (MetalPlate)
  6
ByLayer
 62
  256
370
   -1
100
AcDbPolyline
 90
    4
 70
    1
 43
0
 10
199
 20
75
 10
199
 20
89
 10
213
 20
89
 10
213
 20
75
  0
LWPOLYLINE
  5
5C
100
AcDbEntity
  8
RightLayer3 (MetalPlate)
  6
ByLayer
 62
  256
370
   -1
100
AcDbPolyline
 90
    4
 70
    1
 43
0
 10
180
 20
94
 10
180
 20
108
 10
194
 20
108
 10
194
 20
94
  0
LWPOLYLINE
  5
5D
100
AcDbEntity
  8
RightLayer3 (MetalPlate)
  6
ByLayer
 62
  256
370
   -1
100
AcDbPolyline
 90
    4
 70
    1
 43
0
 10
199
 20
94
 10
199
 20
108
 10
213
 20
108
 10
213
 20
94
  0
LWPOLYLINE
  5
5E
100
AcDbEntity
  8
RightLayer3 (MetalPlate)
  6
ByLayer
 62
  256
370
   -1
100
AcDbPolyline
 90
    4
 70
    1
 43
0
 10
218
 20
-20
 10
218
 20
-6.000000000000007
 10
232
 20
-6.000000000000007
 10
232
 20
-20
  0
LWPOLYLINE
  5
5F
100
AcDbEntity
  8
RightLayer3 (MetalPlate)
  6
ByLayer
 62
  256
370
   -1
100
AcDbPolyline
 90
    4
 70
    1
 43
0
 10
218
 20
-1.000000000000007
 10
218
 20
12.99999999999999
 10
232
 20
12.99999999999999
 10
232
 20
-1.000000000000007
  0
LWPOLYLINE
  5
60
100
AcDbEntity
  8
RightLayer3 (MetalPlate)
  6
ByLayer
 62
  256
370
   -1
100
AcDbPolyline
 90
    4
 70
    1
 43
0
 10
218
 20
75
 10
218
 20
89
 10
232
 20
89
 10
232
 20
75
  0
LWPOLYLINE
  5
61
100
AcDbEntity
  8
RightLayer3 (MetalPlate)
  6
ByLayer
 62
  256
370
   -1
100
AcDbPolyline
 90
    4
 70
    1
 43
0
 10
218
 20
94
 10
218
 20
108
 10
232
 20
108
 10
232
 20
94
  0
LWPOLYLINE
  5
62
100
AcDbEntity
  8
RightLayer3 (MetalPlate)
  6
ByLayer
 62
  256
370
   -1
100
AcDbPolyline
 90
    4
 70
    1
 43
0
 10
185
 20
17.99999999999999
 10
185
 20
32
 10
199
 20
32
 10
199
 20
17.99999999999999
  0
LWPOLYLINE
  5
63
100
AcDbEntity
  8
RightLayer3 (MetalPlate)
  6
ByLayer
 62
  256
370
   -1
100
AcDbPolyline
 90
    4
 70
    1
 43
0
 10
204
 20
17.99999999999999
 10
204
 20
32
 10
218
 20
31.99999999999999
 10
218
 20
17.99999999999999
  0
LWPOLYLINE
  5
64
100
AcDbEntity
  8
RightLayer3 (MetalPlate)
  6
ByLayer
 62
  256
370
   -1
100
AcDbPolyline
 90
    4
 70
    1
 43
0
 10
185
 20
56
 10
185
 20
70
 10
199
 20
70
 10
199
 20
55.99999999999999
  0
LWPOLYLINE
  5
65
100
AcDbEntity
  8
RightLayer3 (MetalPlate)
  6
ByLayer
 62
  256
370
   -1
100
AcDbPolyline
 90
    4
 70
    1
 43
0
 10
204
 20
55.99999999999999
 10
204
 20
70
 10
218
 20
70
 10
218
 20
55.99999999999999
  0
LWPOLYLINE
  5
66
100
AcDbEntity
  8
RightLayer3 (MetalPlate)
  6
ByLayer
 62
  256
370
   -1
100
AcDbPolyline
 90
    4
 70
    1
 43
0
 10
223
 20
17.99999999999999
 10
223
 20
31.99999999999999
 10
237
 20
31.99999999999999
 10
237
 20
17.99999999999999
  0
LWPOLYLINE
  5
67
100
AcDbEntity
  8
RightLayer3 (MetalPlate)
  6
ByLayer
 62
  256
370
   -1
100
AcDbPolyline
 90
    4
 70
    1
 43
0
 10
223
 20
55.99999999999999
 10
223
 20
70
 10
237
 20
70
 10
237
 20
55.99999999999999
  0
LWPOLYLINE
  5
68
100
AcDbEntity
  8
RightLayer3 (MetalPlate)
  6
ByLayer
 62
  256
370
   -1
100
AcDbPolyline
 90
    4
 70
    1
 43
0
 10
147
 20
18
 10
147
 20
32
 10
161
 20
32
 10
161
 20
18
  0
LWPOLYLINE
  5
69
100
AcDbEntity
  8
RightLayer3 (MetalPlate)
  6
ByLayer
 62
  256
370
   -1
100
AcDbPolyline
 90
    4
 70
    1
 43
0
 10
166
 20
18
 10
166
 20
32
 10
180
 20
32
 10
180
 20
17.99999999999999
  0
LWPOLYLINE
  5
6A
100
AcDbEntity
  8
RightLayer3 (MetalPlate)
  6
ByLayer
 62
  256
370
   -1
100
AcDbPolyline
 90
    4
 70
    1
 43
0
 10
190
 20
37
 10
190
 20
50.99999999999999
 10
204
 20
50.99999999999999
 10
204
 20
36.99999999999999
  0
LWPOLYLINE
  5
6B
100
AcDbEntity
  8
RightLayer3 (MetalPlate)
  6
ByLayer
 62
  256
370
   -1
100
AcDbPolyline
 90
    4
 70
    1
 43
0
 10
209
 20
36.99999999999999
 10
209
 20
50.99999999999999
 10
223
 20
50.99999999999999
 10
223
 20
36.99999999999999
  0
LWPOLYLINE
  5
6C
100
AcDbEntity
  8
RightLayer3 (MetalPlate)
  6
ByLayer
 62
  256
370
   -1
100
AcDbPolyline
 90
    4
 70
    1
 43
0
 10
228
 20
36.99999999999999
 10
228
 20
50.99999999999999
 10
242
 20
50.99999999999999
 10
242
 20
36.99999999999999
  0
LWPOLYLINE
  5
6D
100
AcDbEntity
  8
RightLayer3 (MetalPlate)
  6
ByLayer
 62
  256
370
   -1
100
AcDbPolyline
 90
    4
 70
    1
 43
0
 10
156.5
 20
-1
 10
156.5
 20
13
 10
170.5
 20
13
 10
170.5
 20
-1
  0
LWPOLYLINE
  5
6E
100
AcDbEntity
  8
RightLayer3 (MetalPlate)
  6
ByLayer
 62
  256
370
   -1
100
AcDbPolyline
 90
    4
 70
    1
 43
0
 10
156.5
 20
37
 10
156.5
 20
51
 10
170.5
 20
51
 10
170.5
 20
37
  0
LWPOLYLINE
  5
6F
100
AcDbEntity
  8
RightLayer3 (MetalPlate)
  6
ByLayer
 62
  256
370
   -1
100
AcDbPolyline
 90
    4
 70
    1
 43
0
 10
161
 20
-20
 10
161
 20
-6
 10
175
 20
-6
 10
175
 20
-20
  0
LWPOLYLINE
  5
70
100
AcDbEntity
  8
RightLayer3 (MetalPlate)
  6
ByLayer
 62
  256
370
   -1
100
AcDbPolyline
 90
    2
 70
    0
 43
0
 10
250
 20
59.99999999999999
 10
250
 20
59.99999999999999
  0
LWPOLYLINE
  5
71
100
AcDbEntity
  8
RightLayer3 (MetalPlate)
  6
ByLayer
 62
  256
370
   -1
100
AcDbPolyline
 90
    4
 70
    1
 43
0
 10
162
 20
56
 10
162
 20
70
 10
176
 20
70
 10
176
 20
56
  0
LWPOLYLINE
  5
72
100
AcDbEntity
  8
RightLayer3 (MetalPlate)
  6
ByLayer
 62
  256
370
   -1
100
AcDbPolyline
 90
    4
 70
    1
 43
0
 10
161.8942135290285
 20
74.6871157770002
 10
156.1999005259673
 20
87.47675218399661
 10
168.9895369329637
 20
93.17106518705785
 10
174.6838499360249
 20
80.38142878006147
  0
CIRCLE
  5
73
100
AcDbEntity
  8
RightLayer3 (MetalPlate)
  6
ByLayer
 62
  256
370
   -1
100
AcDbCircle
 10
135
 20
75
 40
12.5
  0
LWPOLYLINE
  5
74
100
AcDbEntity
  8
Electronics
  6
ByLayer
 62
  256
370
   -1
100
AcDbPolyline
 90
    4
 70
    1
 43
0
 10
270
 20
-24.99999999999998
 10
250
 20
-24.99999999999998
 10
250
 20
35
 10
270
 20
35
  0
LWPOLYLINE
  5
75
100
AcDbEntity
  8
Electronics
  6
ByLayer
 62
  256
370
   -1
100
AcDbPolyline
 90
    5
 70
    0
 43
0
 10
150
 20
50
 10
150
 20
90
 10
120
 20
90
 10
120
 20
50
 10
150
 20
50
  0
LWPOLYLINE
  5
76
100
AcDbEntity
  8
Electronics
  6
ByLayer
 62
  256
370
   -1
100
AcDbPolyline
 90
    4
 70
    1
 43
0
 10
120
 20
-25
 10
120
 20
15
 10
150
 20
15
 10
150
 20
-25
  0
LWPOLYLINE
  5
77
100
AcDbEntity
  8
RightLayer3 (MetalPlate)
  6
ByLayer
 62
  256
370
   -1
100
AcDbPolyline
 90
    4
 70
    1
 43
0
 10
154.4129378330904
 20
91.38224217273981
 10
144.0089102764069
 20
100.7500706617638
 10
153.3767387654309
 20
111.1540982184473
 10
163.7807663221145
 20
101.7862697294233
  0
LWPOLYLINE
  5
78
100
AcDbEntity
  8
RightLayer2 (EnclosingFrame)
  6
ByLayer
 62
  256
370
   -1
100
AcDbPolyline
 90
   11
 70
    1
 43
0
 10
115
 20
-35
 10
135
 20
-35
 10
270
 20
-34.99999999999998
 10
280
 20
-34.99999999999998
 10
280
 20
69.99999999999984
 10
280
 20
125
 10
255
 20
125
 10
115
 20
125
 10
110
 20
125
 10
110
 20
47.92893218813448
 10
110
 20
-35
  0
LWPOLYLINE
  5
79
100
AcDbEntity
  8
RightLayer2 (EnclosingFrame)
  6
ByLayer
 62
  256
370
   -1
100
AcDbPolyline
 90
   10
 70
    0
 43
0
 10
135
 20
-25
 10
260
 20
-24.99999999999998
 10
270
 20
-24.99999999999998
 10
270
 20
59.99999999999992
 10
270
 20
115
 10
125
 20
115
 10
120
 20
115
 10
120
 20
47.92893218813448
 10
120
 20
-25
 10
138
 20
-25
  0
LWPOLYLINE
  5
7A
100
AcDbEntity
  8
RightLayer3 (MetalPlate)
  6
ByLayer
 62
  256
370
   -1
100
AcDbPolyline
 90
    5
 70
    1
 43
0
 10
277
 20
-31.99999999999998
 10
277
 20
64.99999999999984
 10
277
 20
122
 10
113
 20
122
 10
113
 20
-32
  0
LWPOLYLINE
  5
7B
100
AcDbEntity
  8
RightLayer1 (BottomPlate)
  6
ByLayer
 62
  256
370
   -1
100
AcDbPolyline
 90
   11
 70
    1
 43
0
 10
115
 20
-35
 10
135
 20
-35
 10
270
 20
-34.99999999999998
 10
280
 20
-34.99999999999998
 10
280
 20
69.99999999999984
 10
280
 20
125
 10
255
 20
125
 10
115
 20
125
 10
110
 20
125
 10
110
 20
47.92893218813448
 10
110
 20
-35
  0
LWPOLYLINE
  5
7C
100
AcDbEntity
  8
LeftLayer1 (BottomPlace)
  6
ByLayer
 62
  256
370
   -1
100
AcDbPolyline
 90
   11
 70
    1
 43
0
 10
85
 20
-35
 10
65
 20
-35
 10
-70
 20
-34.99999999999996
 10
-80
 20
-34.99999999999996
 10
-80
 20
69.99999999999982
 10
-80
 20
125
 10
-55
 20
125
 10
85
 20
125
 10
90.00000000000001
 20
125
 10
90
 20
47.92893218813448
 10
90
 20
-35
  0
LWPOLYLINE
  5
7D
100
AcDbEntity
  8
LeftLayer2 (EnclosingFrame)
  6
ByLayer
 62
  256
370
   -1
100
AcDbPolyline
 90
   11
 70
    1
 43
0
 10
85
 20
-35
 10
65
 20
-35
 10
-70
 20
-34.99999999999996
 10
-80
 20
-34.99999999999996
 10
-80
 20
69.99999999999982
 10
-80
 20
125
 10
-55
 20
125
 10
85
 20
125
 10
90.00000000000001
 20
125
 10
90
 20
47.92893218813448
 10
90
 20
-35
  0
LWPOLYLINE
  5
7E
100
AcDbEntity
  8
LeftLayer3 (MetalPlate)
  6
ByLayer
 62
  256
370
   -1
100
AcDbPolyline
 90
    4
 70
    1
 43
0
 10
20
 20
-20
 10
20
 20
-5.999999999999993
 10
6
 20
-5.999999999999993
 10
6
 20
-20
  0
LWPOLYLINE
  5
7F
100
AcDbEntity
  8
LeftLayer3 (MetalPlate)
  6
ByLayer
 62
  256
370
   -1
100
AcDbPolyline
 90
    4
 70
    1
 43
0
 10
1
 20
-20
 10
1
 20
-5.999999999999993
 10
-13
 20
-5.999999999999993
 10
-13
 20
-20
  0
LWPOLYLINE
  5
80
100
AcDbEntity
  8
LeftLayer3 (MetalPlate)
  6
ByLayer
 62
  256
370
   -1
100
AcDbPolyline
 90
    4
 70
    1
 43
0
 10
20
 20
-0.9999999999999929
 10
20
 20
12.99999999999998
 10
6
 20
12.99999999999998
 10
6
 20
-0.9999999999999929
  0
LWPOLYLINE
  5
81
100
AcDbEntity
  8
LeftLayer3 (MetalPlate)
  6
ByLayer
 62
  256
370
   -1
100
AcDbPolyline
 90
    4
 70
    1
 43
0
 10
1
 20
-0.9999999999999929
 10
1
 20
12.99999999999998
 10
-13
 20
12.99999999999998
 10
-13
 20
-0.9999999999999929
  0
LWPOLYLINE
  5
82
100
AcDbEntity
  8
LeftLayer3 (MetalPlate)
  6
ByLayer
 62
  256
370
   -1
100
AcDbPolyline
 90
    4
 70
    1
 43
0
 10
20
 20
75
 10
20
 20
89
 10
6
 20
89
 10
6
 20
75
  0
LWPOLYLINE
  5
83
100
AcDbEntity
  8
LeftLayer3 (MetalPlate)
  6
ByLayer
 62
  256
370
   -1
100
AcDbPolyline
 90
    4
 70
    1
 43
0
 10
1
 20
75
 10
1
 20
89
 10
-13
 20
89
 10
-13
 20
75
  0
LWPOLYLINE
  5
84
100
AcDbEntity
  8
LeftLayer3 (MetalPlate)
  6
ByLayer
 62
  256
370
   -1
100
AcDbPolyline
 90
    4
 70
    1
 43
0
 10
20
 20
94
 10
20
 20
108
 10
6
 20
108
 10
6
 20
94
  0
LWPOLYLINE
  5
85
100
AcDbEntity
  8
LeftLayer3 (MetalPlate)
  6
ByLayer
 62
  256
370
   -1
100
AcDbPolyline
 90
    4
 70
    1
 43
0
 10
1
 20
94
 10
1
 20
108
 10
-13
 20
108
 10
-13
 20
94
  0
LWPOLYLINE
  5
86
100
AcDbEntity
  8
LeftLayer3 (MetalPlate)
  6
ByLayer
 62
  256
370
   -1
100
AcDbPolyline
 90
    4
 70
    1
 43
0
 10
-18
 20
-20
 10
-18
 20
-5.999999999999993
 10
-32
 20
-5.999999999999993
 10
-32
 20
-20
  0
LWPOLYLINE
  5
87
100
AcDbEntity
  8
LeftLayer3 (MetalPlate)
  6
ByLayer
 62
  256
370
   -1
100
AcDbPolyline
 90
    4
 70
    1
 43
0
 10
-18
 20
-0.9999999999999929
 10
-18
 20
12.99999999999998
 10
-32
 20
12.99999999999998
 10
-32
 20
-0.9999999999999929
  0
LWPOLYLINE
  5
88
100
AcDbEntity
  8
LeftLayer3 (MetalPlate)
  6
ByLayer
 62
  256
370
   -1
100
AcDbPolyline
 90
    4
 70
    1
 43
0
 10
-18
 20
75
 10
-18
 20
89
 10
-32
 20
89
 10
-32
 20
75
  0
LWPOLYLINE
  5
89
100
AcDbEntity
  8
LeftLayer3 (MetalPlate)
  6
ByLayer
 62
  256
370
   -1
100
AcDbPolyline
 90
    4
 70
    1
 43
0
 10
-18
 20
94
 10
-18
 20
108
 10
-32
 20
108
 10
-32
 20
94
  0
LWPOLYLINE
  5
8A
100
AcDbEntity
  8
LeftLayer3 (MetalPlate)
  6
ByLayer
 62
  256
370
   -1
100
AcDbPolyline
 90
    4
 70
    1
 43
0
 10
15
 20
17.99999999999998
 10
15
 20
32
 10
1
 20
32
 10
1
 20
17.99999999999998
  0
LWPOLYLINE
  5
8B
100
AcDbEntity
  8
LeftLayer3 (MetalPlate)
  6
ByLayer
 62
  256
370
   -1
100
AcDbPolyline
 90
    4
 70
    1
 43
0
 10
-4
 20
17.99999999999998
 10
-4
 20
32
 10
-18
 20
31.99999999999998
 10
-18
 20
17.99999999999998
  0
LWPOLYLINE
  5
8C
100
AcDbEntity
  8
LeftLayer3 (MetalPlate)
  6
ByLayer
 62
  256
370
   -1
100
AcDbPolyline
 90
    4
 70
    1
 43
0
 10
15
 20
56
 10
15
 20
70
 10
1
 20
70
 10
1
 20
56.00000000000001
  0
LWPOLYLINE
  5
8D
100
AcDbEntity
  8
LeftLayer3 (MetalPlate)
  6
ByLayer
 62
  256
370
   -1
100
AcDbPolyline
 90
    4
 70
    1
 43
0
 10
-4
 20
56.00000000000001
 10
-4
 20
70
 10
-18
 20
70
 10
-18
 20
56.00000000000001
  0
LWPOLYLINE
  5
8E
100
AcDbEntity
  8
LeftLayer3 (MetalPlate)
  6
ByLayer
 62
  256
370
   -1
100
AcDbPolyline
 90
    4
 70
    1
 43
0
 10
-23
 20
17.99999999999998
 10
-23
 20
31.99999999999998
 10
-37
 20
31.99999999999998
 10
-37
 20
17.99999999999998
  0
LWPOLYLINE
  5
8F
100
AcDbEntity
  8
LeftLayer3 (MetalPlate)
  6
ByLayer
 62
  256
370
   -1
100
AcDbPolyline
 90
    4
 70
    1
 43
0
 10
-23
 20
56.00000000000001
 10
-23
 20
70
 10
-37
 20
70
 10
-37
 20
56.00000000000001
  0
LWPOLYLINE
  5
90
100
AcDbEntity
  8
LeftLayer3 (MetalPlate)
  6
ByLayer
 62
  256
370
   -1
100
AcDbPolyline
 90
    4
 70
    1
 43
0
 10
53
 20
18
 10
53
 20
32
 10
39
 20
32
 10
39
 20
18
  0
LWPOLYLINE
  5
91
100
AcDbEntity
  8
LeftLayer3 (MetalPlate)
  6
ByLayer
 62
  256
370
   -1
100
AcDbPolyline
 90
    4
 70
    1
 43
0
 10
34
 20
18
 10
34
 20
32
 10
20
 20
32
 10
20
 20
17.99999999999998
  0
LWPOLYLINE
  5
92
100
AcDbEntity
  8
LeftLayer3 (MetalPlate)
  6
ByLayer
 62
  256
370
   -1
100
AcDbPolyline
 90
    4
 70
    1
 43
0
 10
10
 20
37
 10
10
 20
51.00000000000001
 10
-4
 20
51.00000000000001
 10
-4
 20
37.00000000000001
  0
LWPOLYLINE
  5
93
100
AcDbEntity
  8
LeftLayer3 (MetalPlate)
  6
ByLayer
 62
  256
370
   -1
100
AcDbPolyline
 90
    4
 70
    1
 43
0
 10
-9
 20
37.00000000000001
 10
-9
 20
51.00000000000001
 10
-23
 20
51.00000000000001
 10
-23
 20
37.00000000000001
  0
LWPOLYLINE
  5
94
100
AcDbEntity
  8
LeftLayer3 (MetalPlate)
  6
ByLayer
 62
  256
370
   -1
100
AcDbPolyline
 90
    4
 70
    1
 43
0
 10
-28
 20
37.00000000000001
 10
-28
 20
51.00000000000001
 10
-42
 20
51.00000000000001
 10
-42
 20
37.00000000000001
  0
LWPOLYLINE
  5
95
100
AcDbEntity
  8
LeftLayer3 (MetalPlate)
  6
ByLayer
 62
  256
370
   -1
100
AcDbPolyline
 90
    4
 70
    1
 43
0
 10
43.5
 20
-1
 10
43.5
 20
13
 10
29.5
 20
13
 10
29.5
 20
-1
  0
LWPOLYLINE
  5
96
100
AcDbEntity
  8
LeftLayer3 (MetalPlate)
  6
ByLayer
 62
  256
370
   -1
100
AcDbPolyline
 90
    4
 70
    1
 43
0
 10
43.5
 20
37
 10
43.5
 20
51
 10
29.5
 20
51
 10
29.5
 20
37
  0
LWPOLYLINE
  5
97
100
AcDbEntity
  8
LeftLayer3 (MetalPlate)
  6
ByLayer
 62
  256
370
   -1
100
AcDbPolyline
 90
    4
 70
    1
 43
0
 10
39
 20
-20
 10
39
 20
-6
 10
25
 20
-6
 10
25
 20
-20
  0
LWPOLYLINE
  5
98
100
AcDbEntity
  8
LeftLayer3 (MetalPlate)
  6
ByLayer
 62
  256
370
   -1
100
AcDbPolyline
 90
    2
 70
    0
 43
0
 10
-50
 20
60.00000000000001
 10
-50
 20
60.00000000000001
  0
LWPOLYLINE
  5
99
100
AcDbEntity
  8
LeftLayer3 (MetalPlate)
  6
ByLayer
 62
  256
370
   -1
100
AcDbPolyline
 90
    4
 70
    1
 43
0
 10
38
 20
56
 10
38
 20
70
 10
24
 20
70
 10
24
 20
56
  0
LWPOLYLINE
  5
9A
100
AcDbEntity
  8
LeftLayer3 (MetalPlate)
  6
ByLayer
 62
  256
370
   -1
100
AcDbPolyline
 90
    4
 70
    1
 43
0
 10
38.10578647097151
 20
74.6871157770002
 10
43.80009947403269
 20
87.47675218399661
 10
31.01046306703631
 20
93.17106518705785
 10
25.3161500639751
 20
80.38142878006147
  0
LINE
  5
9B
100
AcDbEntity
  8
LeftLayer3 (MetalPlate)
  6
ByLayer
 62
  256
370
   -1
100
AcDbLine
 10
-50
 20
40
 11
-60
 21
40
  0
LWPOLYLINE
  5
9C
100
AcDbEntity
  8
LeftLayer3 (MetalPlate)
  6
ByLayer
 62
  256
370
   -1
100
AcDbPolyline
 90
    4
 70
    1
 43
0
 10
45.58706216690959
 20
91.38224217273981
 10
55.99108972359309
 20
100.7500706617638
 10
46.6232612345691
 20
111.1540982184473
 10
36.21923367788551
 20
101.7862697294233
  0
LINE
  5
9D
100
AcDbEntity
  8
LeftLayer3 (MetalPlate)
  6
ByLayer
 62
  256
370
   -1
100
AcDbLine
 10
-60
 20
110
 11
-50
 21
110
  0
LINE
  5
9E
100
AcDbEntity
  8
LeftLayer3 (MetalPlate)
  6
ByLayer
 62
  256
370
   -1
100
AcDbLine
 10
-60
 20
40
 11
-60
 21
110
  0
LINE
  5
9F
100
AcDbEntity
  8
LeftLayer3 (MetalPlate)
  6
ByLayer
 62
  256
370
   -1
100
AcDbLine
 10
-50
 20
110
 11
-50
 21
40
  0
LWPOLYLINE
  5
A0
100
AcDbEntity
  8
LeftLayer3 (MetalPlate)
  6
ByLayer
 62
  256
370
   -1
100
AcDbPolyline
 90
    5
 70
    1
 43
0
 10
-77
 20
-31.99999999999996
 10
-77
 20
64.99999999999984
 10
-77
 20
122
 10
87
 20
122
 10
87
 20
-32
  0
LWPOLYLINE
  5
A1
100
AcDbEntity
  8
0
  6
ByLayer
 62
  256
370
   -1
100
AcDbPolyline
 90
    4
 70
    1
 43
0
 10
180
 20
-20
 10
180
 20
-6.000000000000007
 10
194
 20
-6.000000000000007
 10
194
 20
-20
  0
LWPOLYLINE
  5
A2
100
AcDbEntity
  8
0
  6
ByLayer
 62
  256
370
   -1
100
AcDbPolyline
 90
    4
 70
    1
 43
0
 10
199
 20
-20
 10
199
 20
-6.000000000000007
 10
213
 20
-6.000000000000007
 10
213
 20
-20
  0
LWPOLYLINE
  5
A3
100
AcDbEntity
  8
0
  6
ByLayer
 62
  256
370
   -1
100
AcDbPolyline
 90
    4
 70
    1
 43
0
 10
180
 20
-1.000000000000007
 10
180
 20
12.99999999999999
 10
194
 20
12.99999999999999
 10
194
 20
-1.000000000000007
  0
LWPOLYLINE
  5
A4
100
AcDbEntity
  8
0
  6
ByLayer
 62
  256
370
   -1
100
AcDbPolyline
 90
    4
 70
    1
 43
0
 10
199
 20
-1.000000000000007
 10
199
 20
12.99999999999999
 10
213
 20
12.99999999999999
 10
213
 20
-1.000000000000007
  0
LWPOLYLINE
  5
A5
100
AcDbEntity
  8
0
  6
ByLayer
 62
  256
370
   -1
100
AcDbPolyline
 90
    4
 70
    1
 43
0
 10
180
 20
75
 10
180
 20
89
 10
194
 20
89
 10
194
 20
75
  0
LWPOLYLINE
  5
A6
100
AcDbEntity
  8
0
  6
ByLayer
 62
  256
370
   -1
100
AcDbPolyline
 90
    4
 70
    1
 43
0
 10
199
 20
75
 10
199
 20
89
 10
213
 20
89
 10
213
 20
75
  0
LWPOLYLINE
  5
A7
100
AcDbEntity
  8
0
  6
ByLayer
 62
  256
370
   -1
100
AcDbPolyline
 90
    4
 70
    1
 43
0
 10
180
 20
94
 10
180
 20
108
 10
194
 20
108
 10
194
 20
94
  0
LWPOLYLINE
  5
A8
100
AcDbEntity
  8
0
  6
ByLayer
 62
  256
370
   -1
100
AcDbPolyline
 90
    4
 70
    1
 43
0
 10
199
 20
94
 10
199
 20
108
 10
213
 20
108
 10
213
 20
94
  0
LWPOLYLINE
  5
A9
100
AcDbEntity
  8
0
  6
ByLayer
 62
  256
370
   -1
100
AcDbPolyline
 90
    4
 70
    1
 43
0
 10
218
 20
-20
 10
218
 20
-6.000000000000007
 10
232
 20
-6.000000000000007
 10
232
 20
-20
  0
LWPOLYLINE
  5
AA
100
AcDbEntity
  8
0
  6
ByLayer
 62
  256
370
   -1
100
AcDbPolyline
 90
    4
 70
    1
 43
0
 10
218
 20
-1.000000000000007
 10
218
 20
12.99999999999999
 10
232
 20
12.99999999999999
 10
232
 20
-1.000000000000007
  0
LWPOLYLINE
  5
AB
100
AcDbEntity
  8
0
  6
ByLayer
 62
  256
370
   -1
100
AcDbPolyline
 90
    4
 70
    1
 43
0
 10
218
 20
75
 10
218
 20
89
 10
232
 20
89
 10
232
 20
75
  0
LWPOLYLINE
  5
AC
100
AcDbEntity
  8
0
  6
ByLayer
 62
  256
370
   -1
100
AcDbPolyline
 90
    4
 70
    1
 43
0
 10
218
 20
94
 10
218
 20
108
 10
232
 20
108
 10
232
 20
94
  0
LWPOLYLINE
  5
AD
100
AcDbEntity
  8
0
  6
ByLayer
 62
  256
370
   -1
100
AcDbPolyline
 90
    4
 70
    1
 43
0
 10
185
 20
17.99999999999999
 10
185
 20
32
 10
199
 20
32
 10
199
 20
17.99999999999999
  0
LWPOLYLINE
  5
AE
100
AcDbEntity
  8
0
  6
ByLayer
 62
  256
370
   -1
100
AcDbPolyline
 90
    4
 70
    1
 43
0
 10
204
 20
17.99999999999999
 10
204
 20
32
 10
218
 20
31.99999999999999
 10
218
 20
17.99999999999999
  0
LWPOLYLINE
  5
AF
100
AcDbEntity
  8
0
  6
ByLayer
 62
  256
370
   -1
100
AcDbPolyline
 90
    4
 70
    1
 43
0
 10
185
 20
56
 10
185
 20
70
 10
199
 20
70
 10
199
 20
55.99999999999999
  0
LWPOLYLINE
  5
B0
100
AcDbEntity
  8
0
  6
ByLayer
 62
  256
370
   -1
100
AcDbPolyline
 90
    4
 70
    1
 43
0
 10
204
 20
55.99999999999999
 10
204
 20
70
 10
218
 20
70
 10
218
 20
55.99999999999999
  0
LWPOLYLINE
  5
B1
100
AcDbEntity
  8
0
  6
ByLayer
 62
  256
370
   -1
100
AcDbPolyline
 90
    4
 70
    1
 43
0
 10
223
 20
17.99999999999999
 10
223
 20
31.99999999999999
 10
237
 20
31.99999999999999
 10
237
 20
17.99999999999999
  0
LWPOLYLINE
  5
B2
100
AcDbEntity
  8
0
  6
ByLayer
 62
  256
370
   -1
100
AcDbPolyline
 90
    4
 70
    1
 43
0
 10
223
 20
55.99999999999999
 10
223
 20
70
 10
237
 20
70
 10
237
 20
55.99999999999999
  0
LWPOLYLINE
  5
B3
100
AcDbEntity
  8
0
  6
ByLayer
 62
  256
370
   -1
100
AcDbPolyline
 90
    4
 70
    1
 43
0
 10
147
 20
18
 10
147
 20
32
 10
161
 20
32
 10
161
 20
18
  0
LWPOLYLINE
  5
B4
100
AcDbEntity
  8
0
  6
ByLayer
 62
  256
370
   -1
100
AcDbPolyline
 90
    4
 70
    1
 43
0
 10
166
 20
18
 10
166
 20
32
 10
180
 20
32
 10
180
 20
17.99999999999999
  0
LWPOLYLINE
  5
B5
100
AcDbEntity
  8
0
  6
ByLayer
 62
  256
370
   -1
100
AcDbPolyline
 90
    4
 70
    1
 43
0
 10
190
 20
37
 10
190
 20
50.99999999999999
 10
204
 20
50.99999999999999
 10
204
 20
36.99999999999999
  0
LWPOLYLINE
  5
B6
100
AcDbEntity
  8
0
  6
ByLayer
 62
  256
370
   -1
100
AcDbPolyline
 90
    4
 70
    1
 43
0
 10
209
 20
36.99999999999999
 10
209
 20
50.99999999999999
 10
223
 20
50.99999999999999
 10
223
 20
36.99999999999999
  0
LWPOLYLINE
  5
B7
100
AcDbEntity
  8
0
  6
ByLayer
 62
  256
370
   -1
100
AcDbPolyline
 90
    4
 70
    1
 43
0
 10
228
 20
36.99999999999999
 10
228
 20
50.99999999999999
 10
242
 20
50.99999999999999
 10
242
 20
36.99999999999999
  0
LWPOLYLINE
  5
B8
100
AcDbEntity
  8
0
  6
ByLayer
 62
  256
370
   -1
100
AcDbPolyline
 90
    4
 70
    1
 43
0
 10
156.5
 20
-1
 10
156.5
 20
13
 10
170.5
 20
13
 10
170.5
 20
-1
  0
LWPOLYLINE
  5
B9
100
AcDbEntity
  8
0
  6
ByLayer
 62
  256
370
   -1
100
AcDbPolyline
 90
    4
 70
    1
 43
0
 10
156.5
 20
37
 10
156.5
 20
51
 10
170.5
 20
51
 10
170.5
 20
37
  0
LWPOLYLINE
  5
BA
100
AcDbEntity
  8
0
  6
ByLayer
 62
  256
370
   -1
100
AcDbPolyline
 90
    4
 70
    1
 43
0
 10
161
 20
-20
 10
161
 20
-6
 10
175
 20
-6
 10
175
 20
-20
  0
LWPOLYLINE
  5
BB
100
AcDbEntity
  8
0
  6
ByLayer
 62
  256
370
   -1
100
AcDbPolyline
 90
    2
 70
    0
 43
0
 10
250
 20
59.99999999999999
 10
250
 20
59.99999999999999
  0
LWPOLYLINE
  5
BC
100
AcDbEntity
  8
0
  6
ByLayer
 62
  256
370
   -1
100
AcDbPolyline
 90
    4
 70
    1
 43
0
 10
162
 20
56
 10
162
 20
70
 10
176
 20
70
 10
176
 20
56
  0
LWPOLYLINE
  5
BD
100
AcDbEntity
  8
0
  6
ByLayer
 62
  256
370
   -1
100
AcDbPolyline
 90
    4
 70
    1
 43
0
 10
161.8942135290285
 20
74.6871157770002
 10
156.1999005259673
 20
87.47675218399661
 10
168.9895369329637
 20
93.17106518705785
 10
174.6838499360249
 20
80.38142878006147
  0
CIRCLE
  5
BE
100
AcDbEntity
  8
0
  6
ByLayer
 62
  256
370
   -1
100
AcDbCircle
 10
135
 20
75
 40
12.5
  0
LINE
  5
BF
100
AcDbEntity
  8
0
  6
ByLayer
 62
  256
370
   -1
100
AcDbLine
 10
250
 20
40
 11
260
 21
40
  0
LWPOLYLINE
  5
C0
100
AcDbEntity
  8
0
  6
ByLayer
 62
  256
370
   -1
100
AcDbPolyline
 90
    4
 70
    1
 43
0
 10
154.4129378330904
 20
91.38224217273981
 10
144.0089102764069
 20
100.7500706617638
 10
153.3767387654309
 20
111.1540982184473
 10
163.7807663221145
 20
101.7862697294233
  0
LINE
  5
C1
100
AcDbEntity
  8
0
  6
ByLayer
 62
  256
370
   -1
100
AcDbLine
 10
260
 20
110
 11
250
 21
110
  0
LINE
  5
C2
100
AcDbEntity
  8
0
  6
ByLayer
 62
  256
370
   -1
100
AcDbLine
 10
260
 20
40
 11
260
 21
110
  0
LINE
  5
C3
100
AcDbEntity
  8
0
  6
ByLayer
 62
  256
370
   -1
100
AcDbLine
 10
250
 20
110
 11
250
 21
40
  0
LWPOLYLINE
  5
C4
100
AcDbEntity
  8
0
  6
ByLayer
 62
  256
370
   -1
100
AcDbPolyline
 90
    5
 70
    1
 43
0
 10
277
 20
-31.99999999999998
 10
277
 20
64.99999999999984
 10
277
 20
122
 10
113
 20
122
 10
113
 20
-32
  0
LWPOLYLINE
  5
C5
100
AcDbEntity
  8
0
  6
ByLayer
 62
  256
370
   -1
100
AcDbPolyline
 90
    4
 70
    1
 43
0
 10
20
 20
-20
 10
20
 20
-5.999999999999993
 10
6
 20
-5.999999999999993
 10
6
 20
-20
  0
LWPOLYLINE
  5
C6
100
AcDbEntity
  8
0
  6
ByLayer
 62
  256
370
   -1
100
AcDbPolyline
 90
    4
 70
    1
 43
0
 10
1
 20
-20
 10
1
 20
-5.999999999999993
 10
-13
 20
-5.999999999999993
 10
-13
 20
-20
  0
LWPOLYLINE
  5
C7
100
AcDbEntity
  8
0
  6
ByLayer
 62
  256
370
   -1
100
AcDbPolyline
 90
    4
 70
    1
 43
0
 10
20
 20
-0.9999999999999929
 10
20
 20
12.99999999999998
 10
6
 20
12.99999999999998
 10
6
 20
-0.9999999999999929
  0
LWPOLYLINE
  5
C8
100
AcDbEntity
  8
0
  6
ByLayer
 62
  256
370
   -1
100
AcDbPolyline
 90
    4
 70
    1
 43
0
 10
1
 20
-0.9999999999999929
 10
1
 20
12.99999999999998
 10
-13
 20
12.99999999999998
 10
-13
 20
-0.9999999999999929
  0
LWPOLYLINE
  5
C9
100
AcDbEntity
  8
0
  6
ByLayer
 62
  256
370
   -1
100
AcDbPolyline
 90
    4
 70
    1
 43
0
 10
20
 20
75
 10
20
 20
89
 10
6
 20
89
 10
6
 20
75
  0
LWPOLYLINE
  5
CA
100
AcDbEntity
  8
0
  6
ByLayer
 62
  256
370
   -1
100
AcDbPolyline
 90
    4
 70
    1
 43
0
 10
1
 20
75
 10
1
 20
89
 10
-13
 20
89
 10
-13
 20
75
  0
LWPOLYLINE
  5
CB
100
AcDbEntity
  8
0
  6
ByLayer
 62
  256
370
   -1
100
AcDbPolyline
 90
    4
 70
    1
 43
0
 10
20
 20
94
 10
20
 20
108
 10
6
 20
108
 10
6
 20
94
  0
LWPOLYLINE
  5
CC
100
AcDbEntity
  8
0
  6
ByLayer
 62
  256
370
   -1
100
AcDbPolyline
 90
    4
 70
    1
 43
0
 10
1
 20
94
 10
1
 20
108
 10
-13
 20
108
 10
-13
 20
94
  0
LWPOLYLINE
  5
CD
100
AcDbEntity
  8
0
  6
ByLayer
 62
  256
370
   -1
100
AcDbPolyline
 90
    4
 70
    1
 43
0
 10
-18
 20
-20
 10
-18
 20
-5.999999999999993
 10
-32
 20
-5.999999999999993
 10
-32
 20
-20
  0
LWPOLYLINE
  5
CE
100
AcDbEntity
  8
0
  6
ByLayer
 62
  256
370
   -1
100
AcDbPolyline
 90
    4
 70
    1
 43
0
 10
-18
 20
-0.9999999999999929
 10
-18
 20
12.99999999999998
 10
-32
 20
12.99999999999998
 10
-32
 20
-0.9999999999999929
  0
LWPOLYLINE
  5
CF
100
AcDbEntity
  8
0
  6
ByLayer
 62
  256
370
   -1
100
AcDbPolyline
 90
    4
 70
    1
 43
0
 10
-18
 20
75
 10
-18
 20
89
 10
-32
 20
89
 10
-32
 20
75
  0
LWPOLYLINE
  5
D0
100
AcDbEntity
  8
0
  6
ByLayer
 62
  256
370
   -1
100
AcDbPolyline
 90
    4
 70
    1
 43
0
 10
-18
 20
94
 10
-18
 20
108
 10
-32
 20
108
 10
-32
 20
94
  0
LWPOLYLINE
  5
D1
100
AcDbEntity
  8
0
  6
ByLayer
 62
  256
370
   -1
100
AcDbPolyline
 90
    4
 70
    1
 43
0
 10
15
 20
17.99999999999998
 10
15
 20
32
 10
1
 20
32
 10
1
 20
17.99999999999998
  0
LWPOLYLINE
  5
D2
100
AcDbEntity
  8
0
  6
ByLayer
 62
  256
370
   -1
100
AcDbPolyline
 90
    4
 70
    1
 43
0
 10
-4
 20
17.99999999999998
 10
-4
 20
32
 10
-18
 20
31.99999999999998
 10
-18
 20
17.99999999999998
  0
LWPOLYLINE
  5
D3
100
AcDbEntity
  8
0
  6
ByLayer
 62
  256
370
   -1
100
AcDbPolyline
 90
    4
 70
    1
 43
0
 10
15
 20
56
 10
15
 20
70
 10
1
 20
70
 10
1
 20
56.00000000000001
  0
LWPOLYLINE
  5
D4
100
AcDbEntity
  8
0
  6
ByLayer
 62
  256
370
   -1
100
AcDbPolyline
 90
    4
 70
    1
 43
0
 10
-4
 20
56.00000000000001
 10
-4
 20
70
 10
-18
 20
70
 10
-18
 20
56.00000000000001
  0
LWPOLYLINE
  5
D5
100
AcDbEntity
  8
0
  6
ByLayer
 62
  256
370
   -1
100
AcDbPolyline
 90
    4
 70
    1
 43
0
 10
-23
 20
17.99999999999998
 10
-23
 20
31.99999999999998
 10
-37
 20
31.99999999999998
 10
-37
 20
17.99999999999998
  0
LWPOLYLINE
  5
D6
100
AcDbEntity
  8
0
  6
ByLayer
 62
  256
370
   -1
100
AcDbPolyline
 90
    4
 70
    1
 43
0
 10
-23
 20
56.00000000000001
 10
-23
 20
70
 10
-37
 20
70
 10
-37
 20
56.00000000000001
  0
LWPOLYLINE
  5
D7
100
AcDbEntity
  8
0
  6
ByLayer
 62
  256
370
   -1
100
AcDbPolyline
 90
    4
 70
    1
 43
0
 10
53
 20
18
 10
53
 20
32
 10
39
 20
32
 10
39
 20
18
  0
LWPOLYLINE
  5
D8
100
AcDbEntity
  8
0
  6
ByLayer
 62
  256
370
   -1
100
AcDbPolyline
 90
    4
 70
    1
 43
0
 10
34
 20
18
 10
34
 20
32
 10
20
 20
32
 10
20
 20
17.99999999999998
  0
LWPOLYLINE
  5
D9
100
AcDbEntity
  8
0
  6
ByLayer
 62
  256
370
   -1
100
AcDbPolyline
 90
    4
 70
    1
 43
0
 10
10
 20
37
 10
10
 20
51.00000000000001
 10
-4
 20
51.00000000000001
 10
-4
 20
37.00000000000001
  0
LWPOLYLINE
  5
DA
100
AcDbEntity
  8
0
  6
ByLayer
 62
  256
370
   -1
100
AcDbPolyline
 90
    4
 70
    1
 43
0
 10
-9
 20
37.00000000000001
 10
-9
 20
51.00000000000001
 10
-23
 20
51.00000000000001
 10
-23
 20
37.00000000000001
  0
LWPOLYLINE
  5
DB
100
AcDbEntity
  8
0
  6
ByLayer
 62
  256
370
   -1
100
AcDbPolyline
 90
    4
 70
    1
 43
0
 10
-28
 20
37.00000000000001
 10
-28
 20
51.00000000000001
 10
-42
 20
51.00000000000001
 10
-42
 20
37.00000000000001
  0
LWPOLYLINE
  5
DC
100
AcDbEntity
  8
0
  6
ByLayer
 62
  256
370
   -1
100
AcDbPolyline
 90
    4
 70
    1
 43
0
 10
43.5
 20
-1
 10
43.5
 20
13
 10
29.5
 20
13
 10
29.5
 20
-1
  0
LWPOLYLINE
  5
DD
100
AcDbEntity
  8
0
  6
ByLayer
 62
  256
370
   -1
100
AcDbPolyline
 90
    4
 70
    1
 43
0
 10
43.5
 20
37
 10
43.5
 20
51
 10
29.5
 20
51
 10
29.5
 20
37
  0
LWPOLYLINE
  5
DE
100
AcDbEntity
  8
0
  6
ByLayer
 62
  256
370
   -1
100
AcDbPolyline
 90
    4
 70
    1
 43
0
 10
39
 20
-20
 10
39
 20
-6
 10
25
 20
-6
 10
25
 20
-20
  0
LWPOLYLINE
  5
DF
100
AcDbEntity
  8
0
  6
ByLayer
 62
  256
370
   -1
100
AcDbPolyline
 90
    2
 70
    0
 43
0
 10
-50
 20
60.00000000000001
 10
-50
 20
60.00000000000001
  0
LWPOLYLINE
  5
E0
100
AcDbEntity
  8
0
  6
ByLayer
 62
  256
370
   -1
100
AcDbPolyline
 90
    4
 70
    1
 43
0
 10
38
 20
56
 10
38
 20
70
 10
24
 20
70
 10
24
 20
56
  0
LWPOLYLINE
  5
E1
100
AcDbEntity
  8
0
  6
ByLayer
 62
  256
370
   -1
100
AcDbPolyline
 90
    4
 70
    1
 43
0
 10
38.10578647097151
 20
74.6871157770002
 10
43.80009947403269
 20
87.47675218399661
 10
31.01046306703631
 20
93.17106518705785
 10
25.3161500639751
 20
80.38142878006147
  0
LINE
  5
E2
100
AcDbEntity
  8
0
  6
ByLayer
 62
  256
370
   -1
100
AcDbLine
 10
-50
 20
40
 11
-60
 21
40
  0
LWPOLYLINE
  5
E3
100
AcDbEntity
  8
0
  6
ByLayer
 62
  256
370
   -1
100
AcDbPolyline
 90
    4
 70
    1
 43
0
 10
45.58706216690959
 20
91.38224217273981
 10
55.99108972359309
 20
100.7500706617638
 10
46.6232612345691
 20
111.1540982184473
 10
36.21923367788551
 20
101.7862697294233
  0
LINE
  5
E4
100
AcDbEntity
  8
0
  6
ByLayer
 62
  256
370
   -1
100
AcDbLine
 10
-60
 20
110
 11
-50
 21
110
  0
LINE
  5
E5
100
AcDbEntity
  8
0
  6
ByLayer
 62
  256
370
   -1
100
AcDbLine
 10
-60
 20
40
 11
-60
 21
110
  0
LINE
  5
E6
100
AcDbEntity
  8
0
  6
ByLayer
 62
  256
370
   -1
100
AcDbLine
 10
-50
 20
110
 11
-50
 21
40
  0
LWPOLYLINE
  5
E7
100
AcDbEntity
  8
0
  6
ByLayer
 62
  256
370
   -1
100
AcDbPolyline
 90
    5
 70
    1
 43
0
 10
-77
 20
-31.99999999999996
 10
-77
 20
64.99999999999984
 10
-77
 20
122
 10
87
 20
122
 10
87
 20
-32
  0
LWPOLYLINE
  5
E8
100
AcDbEntity
  8
LeftLayer3 (MetalPlate)
  6
ByLayer
 62
  256
370
   -1
100
AcDbPolyline
 90
    4
 70
    1
 43
0
 10
62.43711169220789
 20
50.81311277336815
 10
48.73392982756888
 20
56.91416241950515
 10
64.18992226444929
 20
91.62888980992398
 10
77.8931041290883
 20
85.52784016378698
  0
LWPOLYLINE
  5
E9
100
AcDbEntity
  8
LeftLayer2 (EnclosingFrame)
  6
ByLayer
 62
  256
370
   -1
100
AcDbPolyline
 90
   10
 70
    0
 43
0
 10
65
 20
-25
 10
-60
 20
-24.99999999999991
 10
-70
 20
-24.99999999999991
 10
-70
 20
59.99999999999991
 10
-70
 20
115
 10
75
 20
115
 10
80
 20
115
 10
80
 20
47.92893218813448
 10
80
 20
-25
 10
62
 20
-25
  0
LWPOLYLINE
  5
EA
100
AcDbEntity
  8
LeftLayer4 (TopCover)
  6
ByLayer
 62
  256
370
   -1
100
AcDbPolyline
 90
   11
 70
    1
 43
0
 10
85
 20
-35
 10
65
 20
-35
 10
-70
 20
-34.99999999999996
 10
-80
 20
-34.99999999999996
 10
-80
 20
69.99999999999982
 10
-80
 20
125
 10
-55
 20
125
 10
85
 20
125
 10
90.00000000000001
 20
125
 10
90
 20
47.92893218813448
 10
90
 20
-35
  0
LINE
  5
EB
100
AcDbEntity
  8
LeftLayer4 (TopCover)
  6
ByLayer
 62
  256
370
   -1
100
AcDbLine
 10
487.2462085680427
 20
115
 11
486.2462938902106
 21
114.9869371880558
  0
LINE
  5
EC
100
AcDbEntity
  8
LeftLayer4 (TopCover)
  6
ByLayer
 62
  256
370
   -1
100
AcDbLine
 10
-43.32172978152492
 20
23.53540009089944
 11
-43.32173107370882
 21
23.53540466615711
  0
LINE
  5
ED
100
AcDbEntity
  8
LeftLayer4 (TopCover)
  6
ByLayer
 62
  256
370
   -1
100
AcDbLine
 10
-43.32173080524007
 20
23.53540371558554
 11
-43.32172951305638
 21
23.53539914032775
  0
LWPOLYLINE
  5
EE
100
AcDbEntity
  8
LeftLayer4 (TopCover)
  6
ByLayer
 62
  256
370
   -1
100
AcDbPolyline
 90
   14
 70
    1
 43
0
 10
47.3716443131889
 20
-12.54883525939935
 42
-0.1649112422098967
 10
54.2480095343779
 20
12.92146067198741
 42
0.3215454150080092
 10
53.43295768675583
 20
38.67414436929525
 42
-0.3686746943225608
 10
56.40577979717462
 20
95.16070288883286
 42
0.6586771680721818
 10
47.87967074788714
 20
114.9999999999999
 10
-24.88877918918992
 20
115
 42
0.4218866665828304
 10
-38.26748366195059
 20
101.2671116692041
 42
-0.07786934246819101
 10
-43.13088838135862
 20
63.86326719660362
 10
-43.13088838135869
 20
63.86326719660354
 42
0.1409176027176179
 10
-43.32173166189602
 20
23.53539853343402
 42
-0.08732519683869751
 10
-39.43170353556165
 20
-14.82920712581374
 42
0.3774495091275742
 10
-27.89562760880118
 20
-24.98459926457634
 10
-26.52777077523361
 20
-24.99999999999994
 10
35.6834309350585
 20
-25
 42
0.4328452897338471
  0
LWPOLYLINE
  5
EF
100
AcDbEntity
  8
RightLayer4 (TopCover)
  6
ByLayer
 62
  256
370
   -1
100
AcDbPolyline
 90
   11
 70
    1
 43
0
 10
115
 20
-35
 10
135
 20
-35
 10
270
 20
-34.99999999999993
 10
280
 20
-34.99999999999993
 10
280
 20
69.99999999999984
 10
280
 20
125
 10
255
 20
125
 10
115
 20
125
 10
110
 20
125
 10
110
 20
47.92893218813448
 10
110
 20
-35
  0
LWPOLYLINE
  5
F0
100
AcDbEntity
  8
RightLayer4 (TopCover)
  6
ByLayer
 62
  256
370
   -1
100
AcDbPolyline
 90
   14
 70
    1
 43
0
 10
152.6283556868111
 20
-12.54883525939934
 42
0.1649112422098966
 10
145.7519904656221
 20
12.92146067198742
 42
-0.3215454150080092
 10
146.5670423132441
 20
38.67414436929521
 42
0.3686746943225608
 10
143.5942202028254
 20
95.16070288883286
 42
-0.6586771680721818
 10
152.1203292521129
 20
114.9999999999999
 10
224.8887791891899
 20
115
 42
-0.4218866665828304
 10
238.2674836619506
 20
101.2671116692041
 42
0.07786934246819101
 10
243.1308883813586
 20
63.86326719660361
 10
243.1308883813587
 20
63.86326719660352
 42
-0.1409176027176179
 10
243.321731661896
 20
23.53539853343398
 42
0.08732519683869751
 10
239.4317035355617
 20
-14.82920712581374
 42
-0.3774495091275742
 10
227.8956276088012
 20
-24.98459926457632
 10
226.5277707752336
 20
-24.99999999999995
 10
164.3165690649415
 20
-25.00000000000003
 42
-0.4328452897338471
  0
CIRCLE
  5
F1
100
AcDbEntity
  8
RightLayer4 (TopCover)
  6
ByLayer
 62
  256
370
   -1
100
AcDbCircle
 10
116.5
 20
118.5
 40
2
  0
CIRCLE
  5
F2
100
AcDbEntity
  8
RightLayer4 (TopCover)
  6
ByLayer
 62
  256
370
   -1
100
AcDbCircle
 10
273.5
 20
118.5
 40
2
  0
CIRCLE
  5
F3
100
AcDbEntity
  8
RightLayer4 (TopCover)
  6
ByLayer
 62
  256
370
   -1
100
AcDbCircle
 10
116.5
 20
-28.5
 40
2
  0
CIRCLE
  5
F4
100
AcDbEntity
  8
RightLayer4 (TopCover)
  6
ByLayer
 62
  256
370
   -1
100
AcDbCircle
 10
273.5
 20
-28.5
 40
2
  0
CIRCLE
  5
F5
100
AcDbEntity
  8
RightLayer4 (TopCover)
  6
ByLayer
 62
  256
370
   -1
100
AcDbCircle
 10
135
 20
75
 40
12.5
  0
LWPOLYLINE
  5
F6
100
AcDbEntity
  8
LeftLayer4 (TopCover)
  6
ByLayer
 62
  256
370
   -1
100
AcDbPolyline
 90
   11
 70
    0
 43
0
 10
55.44186045976369
 20
67.06323462506475
 10
70.16510791064809
 20
68.17047646857755
 10
61.1361734628249
 20
79.85287103206119
 10
66.01701317973449
 20
90.81541652377236
 10
77.8931041290883
 20
85.52784016378698
 10
62.43711169220789
 20
50.81311277336815
 10
50.56102074285408
 20
56.10068913335354
 10
55.4418604597637
 20
67.06323462506478
 10
49.04704225626548
 20
69.91039112659537
 10
54.7413552593267
 20
82.70002753359181
 10
61.1361734628249
 20
79.85287103206119
  0
CIRCLE
  5
F7
100
AcDbEntity
  8
LeftLayer4 (TopCover)
  6
ByLayer
 62
  256
370
   -1
100
AcDbCircle
 10
83.5
 20
118.5
 40
2
  0
CIRCLE
  5
F8
100
AcDbEntity
  8
LeftLayer4 (TopCover)
  6
ByLayer
 62
  256
370
   -1
100
AcDbCircle
 10
-73.5
 20
118.5
 40
2
  0
CIRCLE
  5
F9
100
AcDbEntity
  8
LeftLayer4 (TopCover)
  6
ByLayer
 62
  256
370
   -1
100
AcDbCircle
 10
83.5
 20
-28.5
 40
2
  0
CIRCLE
  5
FA
100
AcDbEntity
  8
LeftLayer4 (TopCover)
  6
ByLayer
 62
  256
370
   -1
100
AcDbCircle
 10
-73.5
 20
-28.5
 40
2
  0
LWPOLYLINE
  5
FB
100
AcDbEntity
  8
LeftLayer4 (TopCover)
  6
ByLayer
 62
  256
370
   -1
100
AcDbPolyline
 90
    4
 70
    1
 43
0
 10
260
 20
110
 10
250
 20
110
 10
250
 20
40
 10
260
 20
40
  0
ENDSEC
  0
SECTION
  2
OBJECTS
  0
DICTIONARY
  5
C
330
0
100
AcDbDictionary
281
    1
  3
ACAD_GROUP
350
D
  0
DICTIONARY
  5
D
330
C
100
AcDbDictionary
281
    1
  0
ENDSEC
  0
EOF
